<svg width="19" height="25" viewBox="0 0 19 25" fill="none" xmlns="http://www.w3.org/2000/svg">
<path d="M18.517 22.6493L18.1588 20.9776C17.4207 17.5332 16.0683 14.2964 14.1387 11.3529V8.64058C15.0276 7.97178 15.6035 6.9084 15.6035 5.71289V4.24805C15.6035 3.84355 15.2756 3.51562 14.8711 3.51562H14.1387V0.732422C14.1387 0.32793 13.8108 0 13.4063 0C13.0018 0 12.6739 0.32793 12.6739 0.732422V3.52339C11.3584 3.6001 10.2059 4.29209 9.50003 5.31528C8.79412 4.29209 7.64163 3.6001 6.3262 3.52339V0.732422C6.3262 0.32793 5.99827 0 5.59378 0C5.18929 0 4.86136 0.32793 4.86136 0.732422V3.51562H4.12893C3.72444 3.51562 3.39651 3.84355 3.39651 4.24805V5.71289C3.39651 6.9084 3.97249 7.97178 4.86136 8.64058V11.3529C2.93177 14.2964 1.57937 17.5332 0.841287 20.9776L0.483084 22.6493C0.406521 23.0066 0.605105 23.3658 0.948562 23.4909C3.69744 24.4923 6.57454 25 9.50003 25C12.4255 25 15.3027 24.4923 18.0515 23.4909C18.395 23.3658 18.5935 23.0067 18.517 22.6493V22.6493ZM12.918 4.98047H14.1387V5.71289C14.1387 6.92446 13.153 7.91016 11.9414 7.91016H10.2325V7.66602C10.2325 6.18521 11.4372 4.98047 12.918 4.98047ZM4.86136 4.98047H6.08206C7.56287 4.98047 8.76761 6.18521 8.76761 7.66602V7.91016H7.05862C5.84705 7.91016 4.86136 6.92446 4.86136 5.71289V4.98047ZM7.05862 9.375H11.9414C12.1922 9.375 12.4371 9.34956 12.6739 9.30132V10.8398H6.3262V9.30132C6.56292 9.34956 6.80784 9.375 7.05862 9.375V9.375ZM9.50003 23.5352C6.95852 23.5352 4.45564 23.128 2.05076 22.3244L2.27356 21.2846C2.96121 18.0757 4.21057 15.0566 5.98904 12.3047L13.011 12.3047C14.7894 15.0566 16.0388 18.0757 16.7264 21.2845L16.9492 22.3244C14.5445 23.128 12.0415 23.5352 9.50003 23.5352Z" fill="black"/>
</svg>
