<svg width="27" height="27" viewBox="0 0 27 27" fill="none" xmlns="http://www.w3.org/2000/svg">
<g clip-path="url(#clip0_2_419)">
<path d="M8.25238 7.8164C6.75055 9.3182 6.75055 11.7618 8.25235 13.2636L9.05004 12.4659C7.98813 11.404 7.98811 9.6761 9.05007 8.61414C10.112 7.55221 11.8399 7.55221 12.9018 8.61411L13.6995 7.81643C12.1977 6.3146 9.75415 6.31463 8.25238 7.8164Z" fill="#6E9C9F"/>
<path d="M9.84127 9.39124C9.2091 10.0234 9.20907 11.0521 9.84124 11.6843L10.639 10.8866C10.5458 10.7934 10.4945 10.6695 10.4945 10.5378C10.4945 10.406 10.5458 10.2822 10.639 10.189C10.7322 10.0958 10.856 10.0445 10.9878 10.0445C11.1195 10.0445 11.2434 10.0958 11.3366 10.189L12.1343 9.39127C11.5021 8.75907 10.4734 8.75907 9.84127 9.39124Z" fill="#6E9C9F"/>
<path d="M19.7483 7.43512L17.8551 5.54846L13.9234 9.47365L15.4476 11.0478C15.1922 11.5012 14.6379 12.3699 13.6934 13.3145C12.7487 14.2592 11.8737 14.8197 11.4159 15.0792L9.87264 13.5556L6.00229 17.4029L7.88513 19.2983C8.60489 20.0181 9.70001 20.2046 10.6102 19.7625C11.9992 19.0879 14.0955 17.8431 16.1943 15.7443C18.2931 13.6455 19.5379 11.5492 20.2125 10.1602C20.3724 9.83107 20.45 9.47786 20.45 9.1269C20.45 8.50718 20.2078 7.89463 19.7483 7.43512ZM19.1978 9.66731C18.561 10.9784 17.3846 12.9586 15.3966 14.9466C13.4087 16.9345 11.4285 18.1109 10.1174 18.7477C9.63938 18.9799 9.0629 18.8806 8.68423 18.5019L7.59749 17.4079L9.87546 15.1436L11.1902 16.4415L11.5419 16.2849C11.5991 16.2595 12.9595 15.6438 14.4912 14.1121C16.0239 12.5795 16.6267 11.2305 16.6516 11.1738L16.8041 10.8268L15.5068 9.48703L17.8559 7.14177L18.9512 8.23325C19.3307 8.61328 19.4298 9.18951 19.1978 9.66731Z" fill="#6E9C9F"/>
</g>
<defs>
<clipPath id="clip0_2_419">
<rect width="17" height="17" fill="white" transform="translate(6 3)"/>
</clipPath>
</defs>
</svg>
